<?xml version="1.0" encoding="UTF-8" standalone="no"?>
<svg xmlns:sketch="http://www.bohemiancoding.com/sketch/ns" xmlns="http://www.w3.org/2000/svg" height="439px" width="901px" version="1.1" xmlns:xlink="http://www.w3.org/1999/xlink" viewBox="0 0 901 439"><!-- Generator: Sketch 3.4.2 (15855) - http://www.bohemiancoding.com/sketch -->
 <title>Group</title>
 <desc>Created with Sketch.</desc>
 <g id="Page-1" fill-rule="evenodd" sketch:type="MSPage" fill="none">
  <g id="404v2" transform="translate(-1244)" sketch:type="MSLayerGroup">
   <g id="image-server" sketch:type="MSShapeGroup" transform="translate(1244)">
    <g id="Group">
     <path id="Shape" fill="#DD4814" d="m585.45 380.83c0 30.06-24.37 54.41-54.48 54.41h-163.46c-30.13 0-54.51-24.35-54.51-54.41v-326.42c0-30.037 24.38-54.41 54.51-54.41h163.46c30.11 0 54.48 24.373 54.48 54.405v326.42 0.01zm-75.84-251.63h-120.74c-11.81 0-21.36-9.14-21.36-20.4 0-11.246 9.56-20.411 21.36-20.411h120.74c11.76 0 21.36 9.171 21.36 20.411 0 11.27-9.6 20.41-21.36 20.41v-0.01zm0-54.4h-120.74c-11.81 0-21.36-9.115-21.36-20.401 0-11.268 9.56-20.408 21.36-20.408h120.74c11.76 0 21.36 9.14 21.36 20.408 0 11.286-9.6 20.407-21.36 20.407v-0.006zm0 108.81h-120.74c-11.81 0-21.36-9.13-21.36-20.4s9.56-20.4 21.36-20.4h120.74c11.76 0 21.36 9.13 21.36 20.4s-9.6 20.38-21.36 20.38v0.02zm-54.15 82.03c2.54 2.33 3.81 5.14 3.81 8.44 0 3.98-1.3 7.51-3.91 10.59-2.6 3.09-5.48 6.21-8.64 9.37-2.19 2.19-4.32 4.46-6.38 6.79s-3.88 4.84-5.45 7.51c-1.58 2.68-2.85 5.56-3.81 8.65-0.96 3.08-1.44 6.55-1.44 10.39 0 1.24 0.03 2.71 0.1 4.43 0.07 1.71 0.24 3.26 0.52 4.63h27.16c-0.13-0.83-0.2-1.79-0.2-2.89v-2.46c0-2.34 0.47-4.64 1.44-6.9 0.96-2.26 2.16-4.42 3.6-6.48s3.05-4.02 4.84-5.87c1.78-1.85 3.5-3.6 5.14-5.25 2.19-2.19 4.46-4.52 6.79-6.99s4.39-5.08 6.18-7.83c1.78-2.74 3.26-5.72 4.42-8.95 1.17-3.22 1.75-6.75 1.75-10.6 0-3.84-0.65-7.89-1.95-12.14-1.31-4.25-3.6-8.16-6.9-11.73-3.29-3.57-7.79-6.52-13.48-8.85-5.7-2.33-12.93-3.5-21.71-3.5-7 0-14.14 0.93-21.41 2.78s-13.58 4.49-18.93 7.92l8.64 23.26c5.36-2.74 10.22-4.73 14.62-5.97 4.39-1.23 9.05-1.85 13.99-1.85s8.67 1.17 11.22 3.5h-0.01zm2.96 86.3c-3.92-3.29-8.34-4.94-13.28-4.94s-9.36 1.65-13.27 4.94-5.87 7.96-5.87 13.99c0 6.04 1.96 10.71 5.87 14s8.34 4.94 13.27 4.94c4.94 0 9.36-1.65 13.28-4.94 3.91-3.29 5.86-7.96 5.86-14 0-6.03-1.95-10.7-5.86-13.99z"/>
     <path id="Shape" fill="#888" d="m274.35 384.12c0 30.32-24.53 54.88-54.86 54.88h-164.6c-30.336 0-54.89-24.56-54.89-54.88l1.3927e-12 -329.24c0-30.296 24.554-54.88 54.893-54.88l164.6 8.5265e-14c30.33 0 54.86 24.584 54.86 54.875v329.24zm-76.37-253.8h-121.58c-11.891 0-21.507-9.22-21.507-20.58 0-11.343 9.622-20.586 21.505-20.586h121.58c11.84 0 21.51 9.249 21.51 20.586 0 11.37-9.67 20.59-21.51 20.59v-0.01zm0-54.873h-121.58c-11.891 0-21.507-9.195-21.507-20.578 0-11.365 9.622-20.584 21.505-20.584h121.58c11.84 0 21.51 9.219 21.51 20.584 0 11.383-9.67 20.584-21.51 20.584v-0.006zm0 109.75h-121.58c-11.891 0-21.507-9.21-21.507-20.58s9.622-20.57 21.505-20.57h121.58c11.84 0 21.51 9.2 21.51 20.57 0 11.36-9.67 20.56-21.51 20.56v0.02zm-88.27 144.05c0 15.16-12.264 27.43-27.434 27.43-15.121 0-27.389-12.27-27.389-27.42 0-15.14 12.268-27.44 27.395-27.44 15.164 0 27.438 12.3 27.438 27.44l-0.01-0.01z"/>
     <path id="Shape" fill="#888" d="m900.35 384.12c0 30.32-24.53 54.88-54.86 54.88h-164.6c-30.34 0-54.89-24.56-54.89-54.88v-329.24c0-30.296 24.55-54.88 54.89-54.88l164.6 8.5265e-14c30.33 0 54.86 24.584 54.86 54.875v329.24zm-76.37-253.8h-121.58c-11.89 0-21.51-9.22-21.51-20.58 0-11.343 9.62-20.586 21.51-20.586h121.58c11.84 0 21.51 9.249 21.51 20.586 0 11.37-9.67 20.59-21.51 20.59v-0.01zm0-54.873h-121.58c-11.89 0-21.51-9.195-21.51-20.578 0-11.365 9.62-20.584 21.51-20.584h121.58c11.84 0 21.51 9.219 21.51 20.584 0 11.383-9.67 20.584-21.51 20.584v-0.006zm0 109.75h-121.58c-11.89 0-21.51-9.21-21.51-20.58s9.62-20.57 21.51-20.57h121.58c11.84 0 21.51 9.2 21.51 20.57 0 11.36-9.67 20.56-21.51 20.56v0.02zm-88.27 144.05c0 15.16-12.26 27.43-27.43 27.43-15.13 0-27.39-12.27-27.39-27.42 0-15.14 12.26-27.44 27.39-27.44 15.17 0 27.44 12.3 27.44 27.44l-0.01-0.01z"/>
    </g>
   </g>
  </g>
 </g>
</svg>
